<?xml version="1.0" encoding="UTF-8" standalone="no"?>
<!-- Created with Inkscape (http://www.inkscape.org/) -->

<svg
   version="1.1"
   id="svg1"
   width="1254"
   height="1254"
   viewBox="0 0 1254 1254"
   sodipodi:docname="skeleshare-mask.svg"
   inkscape:version="1.4.2 (ebf0e940, 2025-05-08)"
   xmlns:inkscape="http://www.inkscape.org/namespaces/inkscape"
   xmlns:sodipodi="http://sodipodi.sourceforge.net/DTD/sodipodi-0.dtd"
   xmlns="http://www.w3.org/2000/svg"
   xmlns:svg="http://www.w3.org/2000/svg">
  <defs
     id="defs1" />
  <sodipodi:namedview
     id="namedview1"
     pagecolor="#ffffff"
     bordercolor="#000000"
     borderopacity="0.25"
     inkscape:showpageshadow="2"
     inkscape:pageopacity="0.0"
     inkscape:pagecheckerboard="0"
     inkscape:deskcolor="#d1d1d1"
     inkscape:zoom="0.8125"
     inkscape:cx="510.76923"
     inkscape:cy="655.38462"
     inkscape:window-width="2560"
     inkscape:window-height="1292"
     inkscape:window-x="0"
     inkscape:window-y="30"
     inkscape:window-maximized="1"
     inkscape:current-layer="g1" />
  <g
     inkscape:groupmode="layer"
     inkscape:label="Image"
     id="g1">
    <path
       style="fill:#000000;stroke-width:1.39193"
       d="m 338.41244,930.59932 c -10.52806,-4.58392 -10.32146,-3.34432 -10.32146,-61.92843 0,-70.96411 -12.05126,-62.71183 92.19672,-63.13297 104.4944,-0.42214 93.30168,-8.25622 92.6703,64.8624 -0.48603,56.28662 -0.45719,56.11713 -10.24293,60.20588 -6.77372,2.83023 -157.80106,2.82391 -164.30263,-0.007 z m 210.358,0.96317 c -12.71802,-3.23057 -13.28138,-5.89945 -13.28138,-62.92068 0,-70.75403 -10.3361,-63.11777 86.44552,-63.86545 100.23425,-0.77436 90.10957,-8.15276 89.41911,65.16446 -0.52025,55.24055 -0.7248,56.73432 -8.26124,60.32819 -4.7202,2.25092 -145.89452,3.43418 -154.32201,1.29348 z m 195.88402,-1.04833 c -9.99968,-4.34713 -10.10789,-5.02112 -10.11372,-62.98726 l -0.005,-51.82756 4.02344,-4.50301 c 5.16921,-5.78534 9.18285,-6.02681 99.73061,-6.00012 88.46974,0.026 78.93651,-7.77147 78.69581,64.36746 -0.19196,57.5182 -0.10398,56.8914 -8.59233,61.25372 -5.20769,2.67633 -157.53365,2.39424 -163.73861,-0.30323 z M 511.68139,791.72197 c -1.11076,-2.07545 -1.36841,-7.42525 -0.80389,-16.69147 l 0.83081,-13.63703 -3.76888,-0.92788 c -11.74351,-2.89119 -17.93319,-15.06621 -11.62196,-22.86025 2.55732,-3.15817 2.54168,-3.23172 -1.39193,-6.54164 -7.66538,-6.44999 -4.20628,-19.40377 6.43891,-24.11266 7.19515,-3.18275 11.432,-2.11627 18.43792,4.64118 l 4.49631,4.33688 36.08713,-1.5351 c 37.33107,-1.58801 43.14147,-2.63235 45.25246,-8.13351 1.43046,-3.72771 0.96051,-128.50959 -0.51794,-137.52394 -1.40979,-8.59575 -1.04686,-10.58881 1.92814,-10.58881 0.98913,0 4.8156,-1.60424 8.50327,-3.565 l 6.70483,-3.56498 7.94385,3.56498 c 4.36912,1.96076 9.03278,3.565 10.36366,3.565 2.00922,0 2.24849,0.76762 1.41015,4.52378 -2.01125,9.01122 -2.32135,139.21681 -0.34063,143.02116 3.07353,5.90327 6.98018,6.60064 45.5762,8.13582 l 36.88624,1.46717 4.1758,-4.02016 c 4.87075,-4.6892 10.78246,-7.22452 14.25524,-6.11353 13.62351,4.35834 19.04497,18.5442 9.99679,26.15774 -2.35541,1.98196 -3.67954,3.60357 -2.94246,3.60357 10.22467,0 3.79987,21.36172 -7.55156,25.10803 l -4.62371,1.52596 -0.39136,16.26159 -0.39134,16.26158 -5.04663,0.42169 c -9.15332,0.76484 -12.94816,-15.66687 -7.51616,-32.54506 1.16495,-3.61966 -6.54675,-14.23937 -12.5556,-17.29026 -6.87725,-3.4918 -171.11846,-3.09758 -176.49199,0.4236 -7.79489,5.10789 -9.2566,9.66498 -9.26232,28.8766 -0.005,19.25291 -0.5959,20.8094 -7.89026,20.8094 -3.25401,0 -5.00859,-0.86732 -6.17909,-3.05445 z M 397.47012,772.12188 c -0.87082,-29.79986 -1.65539,-30.35713 -44.07995,-31.30969 l -29.68219,-0.66646 -4.42018,4.18142 c -18.0266,17.05284 -47.82422,0.99677 -32.32795,-17.4195 3.0153,-3.58349 3.17127,-4.29288 1.34525,-6.11891 -6.21451,-6.21451 -2.27165,-18.53619 7.38543,-23.0799 6.88928,-3.24145 7.74298,-10.34 6.95738,-57.85087 -0.45652,-27.6108 -0.2151,-34.37974 1.20672,-33.83412 0.97759,0.37512 5.42137,1.09428 9.87506,1.5981 l 8.09759,0.91605 -0.28964,49.39491 -0.28966,49.39492 3.15528,3.15527 c 3.75404,3.75403 12.57784,4.70104 48.63307,5.21951 l 23.3704,0.33606 3.07634,-3.64995 c 8.44863,-10.02389 24.19049,-8.68947 29.50059,2.50072 2.94952,6.21566 2.64536,9.44095 -1.33663,14.17328 -3.36473,3.99874 -3.38432,4.15328 -0.82115,6.47293 6.60111,5.97392 3.71513,16.98123 -5.5742,21.26032 l -5.39707,2.48614 -0.0359,15.65925 -0.0359,15.65925 h -8.88633 -8.88634 z m 435.89269,3.13302 c 0,-14.80571 -0.11456,-15.38927 -3.25527,-16.58337 -9.10114,-3.46025 -13.48016,-15.69945 -7.78574,-21.76089 l 2.87832,-3.06384 -3.57429,-3.57428 c -13.98698,-13.98699 10.68074,-33.07201 25.47303,-19.70807 l 5.39245,4.87176 20.01434,-0.0676 c 36.9911,-0.12486 47.0175,-1.48771 51.63464,-7.0183 l 3.94152,-4.72132 -0.38175,-48.79404 -0.38175,-48.79401 8.35164,0.51327 c 4.5934,0.2823 8.80711,0.6244 9.36388,0.76022 0.55678,0.13585 1.20907,19.03803 1.44966,42.00493 0.47066,44.94806 0.55089,45.52207 6.72169,48.07809 8.6357,3.57702 12.91426,16.25347 7.50377,22.23202 -2.25499,2.49168 -2.22525,2.88599 0.55677,7.38736 5.25643,8.50516 2.76126,19.94915 -4.9991,22.92833 -11.33574,4.35166 -19.09197,3.00327 -26.96903,-4.68843 l -5.31838,-5.19331 -29.64892,0.79448 c -42.59533,1.14137 -42.85869,1.33365 -42.86714,31.29958 l -0.005,18.44317 h -9.04756 -9.04757 z M 300.5479,595.74397 c -7.23409,-3.28328 -10.79691,-10.15349 -9.3275,-17.9862 1.22002,-6.50323 1.35653,-6.21482 -3.54198,-7.48415 -8.63416,-2.23733 -12.57735,-16.43301 -7.0723,-25.46066 6.33675,-10.39154 20.66563,-11.4605 31.09553,-2.31975 4.56116,3.9974 46.78975,-19.17409 69.5689,-38.17353 36.43674,-30.39087 46.91038,-61.70413 47.01097,-140.54953 l 0.0287,-22.47382 -6.92015,-4.44065 c -9.78003,-6.27584 -13.06503,-12.09506 -12.26612,-21.72893 1.40903,-16.99107 18.78166,-24.46505 30.05796,-12.93139 l 4.28103,4.37874 4.67769,-4.95979 c 11.92956,-12.649 30.2792,-4.63745 30.2792,13.22004 0,8.84167 -2.73705,13.91269 -10.32833,19.13562 -9.00511,6.19568 -10.03633,16.70042 -6.51488,66.36472 2.57797,36.35814 16.77499,48.0975 100.35921,82.98595 34.03466,14.20623 35.83545,14.53283 47.51042,8.61668 8.47809,-4.29619 7.67187,-5.02314 8.87832,8.00552 0.93512,10.09878 0.80365,10.88257 -2.35533,14.04157 l -3.34577,3.34575 2.70887,3.62823 c 5.002,6.69963 2.74679,15.76136 -5.11566,20.55542 -9.53793,5.81569 -21.93193,1.44854 -25.98442,-9.1559 -4.05666,-10.61534 -4.69908,-11.00018 -67.98353,-40.72481 -26.1429,-12.27929 -51.68672,-25.22994 -56.76404,-28.77925 -5.07732,-3.54929 -9.4118,-6.26607 -9.63219,-6.03728 -0.22038,0.22879 -2.89619,6.21383 -5.94625,13.30007 -17.26827,40.11963 -37.72103,60.4769 -89.04762,88.63177 -21.17748,11.61678 -25.37569,15.00131 -25.37569,20.45751 0,14.79584 -14.50596,23.08685 -28.93501,16.53805 z m 626.33869,0.0329 c -4.96493,-3.11616 -8.61588,-10.08461 -8.61588,-16.4451 0,-5.50715 -4.83957,-9.52801 -22.96689,-19.0815 -54.3099,-28.62251 -79.47813,-54.43495 -96.0199,-98.47765 l -2.47709,-6.59534 -4.60861,4.04643 c -7.05723,6.19632 -18.98634,12.42859 -68.12014,35.58888 -57.47609,27.09259 -56.95297,26.78302 -61.50472,36.39645 -6.55029,13.83443 -18.71105,17.13756 -29.54168,8.02418 -5.39069,-4.53597 -6.20832,-15.10206 -1.49846,-19.36442 l 2.7846,-2.52005 -2.7846,-1.95042 c -2.37403,-1.66283 -4.6631,-26.8788 -2.43664,-26.84153 0.19139,0.003 3.42941,1.56914 7.19557,3.47984 13.30908,6.75213 39.82997,-1.67699 96.85145,-30.78219 47.28373,-24.13481 50.93485,-29.97783 52.95998,-84.75412 l 1.28652,-34.79833 -3.80121,-2.78386 c -8.62042,-6.31329 -14.04114,-12.75574 -14.99045,-17.81593 -3.92718,-20.93376 16.6324,-33.71406 30.6681,-19.06395 l 3.81297,3.97988 3.4128,-4.05588 c 11.01648,-13.09235 31.05489,-4.37248 31.04109,13.50777 -0.007,8.43601 -3.46807,14.37354 -11.80619,20.25078 -8.14366,5.74018 -8.0608,5.05456 -6.44278,53.30692 2.71031,80.82582 26.26901,115.04098 103.31792,150.05249 l 10.59536,4.81458 5.96933,-4.00904 c 13.36767,-8.9778 28.80683,-2.74872 30.24338,12.202 0.87007,9.05472 -2.19468,15.20617 -9.14157,18.34868 -5.08894,2.30206 -5.13014,2.38681 -3.92293,8.06574 3.12143,14.68369 -15.85654,25.8122 -29.45933,17.27468 z M 597.4301,460.77639 c -10.01988,-4.1445 -13.66111,-16.68135 -7.94632,-27.3595 1.78164,-3.32903 12.2473,-13.07056 14.04216,-13.07056 2.88671,0 4.42719,-28.24914 4.47837,-82.12407 0.0584,-61.55307 0.0715,-61.44311 -7.72299,-65.85748 -10.72422,-6.07372 -14.33668,-16.44112 -9.83556,-28.22717 4.98131,-13.04333 19.88643,-15.83088 30.92528,-5.78365 l 3.06197,2.7869 4.29985,-4.29986 c 11.79975,-11.79974 29.40182,-2.89575 29.67193,15.00951 0.12291,8.14843 -4.57846,15.28658 -12.84618,19.50445 -7.07509,3.60945 -10.06655,67.51137 -6.15396,131.4578 l 0.91252,14.91395 6.0145,4.13808 c 17.07671,11.74909 17.38632,33.95641 0.54376,39.00257 -7.9192,2.37263 -14.3756,0.61836 -19.59268,-5.32359 l -4.46238,-5.08236 -2.84489,3.90539 c -4.71265,6.46944 -15.19552,9.44969 -22.54538,6.40959 z"
       id="path1"
       sodipodi:nodetypes="ssssssssssssssscsssssssscssssscssssscssssscssssscccsssscsssscssssssscccsscssssscccccsssscsscsscccsssssssscsscccsssssssscssscsssssssscssssssssssssssscssssscscssscssscscssscssssssssssssscsssscssscss" />
    <path
       style="fill:#000000"
       d="m 605.43212,1134.9288 c -42.95453,-3.2141 -63.13274,-6.27 -95.87492,-14.5197 C 267.15211,1059.3328 99.169852,810.01427 131.97934,560.00968 c 73.02175,-556.4174358 855.7879,-601.486286 981.30506,-56.5 75.0187,325.72578 -189.98171,655.20402 -507.85228,631.41912 z m 81,-36.7642 c 446.38288,-67.5604 556.50118,-672.79071 162,-890.38139 C 522.02686,27.751434 117.23841,304.9026 165.30216,675.50968 c 30.11825,232.234 200.75438,404.20982 421.62996,424.94012 20.59196,1.9327 80.76247,0.5507 99.5,-2.2852 z"
       id="path1-7"
       sodipodi:nodetypes="ssssscsssc" />
  </g>
</svg>
