<?xml version="1.0" encoding="UTF-8" standalone="no"?>
<!-- Created with Inkscape (http://www.inkscape.org/) -->

<svg
   width="844"
   height="234"
   viewBox="0 0 223.30833 61.9125"
   version="1.1"
   id="svg1"
   xml:space="preserve"
   inkscape:version="1.4.2 (ebf0e940, 2025-05-08)"
   sodipodi:docname="msdl-mask.svg"
   xmlns:inkscape="http://www.inkscape.org/namespaces/inkscape"
   xmlns:sodipodi="http://sodipodi.sourceforge.net/DTD/sodipodi-0.dtd"
   xmlns="http://www.w3.org/2000/svg"
   xmlns:svg="http://www.w3.org/2000/svg"><sodipodi:namedview
     id="namedview1"
     pagecolor="#ffffff"
     bordercolor="#000000"
     borderopacity="0.25"
     inkscape:showpageshadow="2"
     inkscape:pageopacity="0.0"
     inkscape:pagecheckerboard="0"
     inkscape:deskcolor="#d1d1d1"
     inkscape:document-units="mm"
     inkscape:zoom="0.89887065"
     inkscape:cx="388.82124"
     inkscape:cy="210.8201"
     inkscape:window-width="2560"
     inkscape:window-height="1292"
     inkscape:window-x="0"
     inkscape:window-y="30"
     inkscape:window-maximized="1"
     inkscape:current-layer="layer1" /><defs
     id="defs1" /><g
     inkscape:label="Layer 1"
     inkscape:groupmode="layer"
     id="layer1"
     transform="translate(-2.1434133,-92.584526)"><path
       style="fill:#000000"
       d="m 78.684157,146.23206 c -0.466889,-0.60293 -0.863731,-2.65533 -1.266804,-6.5517 -0.218282,-2.11005 -0.539231,-4.87877 -0.71322,-6.15271 -0.412795,-3.02246 0.794398,-3.86832 1.50127,-1.05192 0.09395,0.37431 0.401558,0.97392 0.683579,1.33245 0.282021,0.35853 0.512765,0.76746 0.512765,0.90873 0,0.14127 0.267891,0.5849 0.595312,0.98584 0.327422,0.40095 0.773907,0.99918 0.992188,1.3294 1.588758,2.40352 3.094135,3.79044 6.10315,5.62292 7.821974,4.76356 17.721383,-1.70802 14.997373,-9.80429 -0.96207,-2.85945 -6.136906,-7.58872 -10.457139,-9.55674 -0.330774,-0.15069 -1.25582,-0.69259 -2.055658,-1.20424 -0.799838,-0.51165 -1.562497,-0.93027 -1.694798,-0.93027 -0.132301,0 -0.39788,-0.15538 -0.590175,-0.34528 -0.192295,-0.1899 -1.068357,-0.83193 -1.946804,-1.42672 -6.088726,-4.12266 -8.825836,-11.93886 -6.000077,-17.13407 1.582555,-2.909548 3.886221,-5.435601 4.957071,-5.435601 0.179536,0 0.465968,-0.168133 0.636514,-0.373629 0.170547,-0.205496 0.929266,-0.521929 1.686043,-0.703185 0.756777,-0.181257 1.759087,-0.489374 2.227356,-0.684705 0.950984,-0.396688 3.358571,-0.449054 4.969436,-0.108087 3.825886,0.809814 4.976897,1.117455 5.525339,1.476808 1.885672,1.23554 5.197032,0.682234 5.771012,-0.964297 0.72211,-2.071434 1.63579,-0.952258 1.97194,2.415429 0.16704,1.673489 0.42273,3.416107 0.5682,3.872477 0.42509,1.33357 0.69351,8.19901 0.32936,8.42407 -0.72023,0.44512 -1.58973,-0.11218 -1.75128,-1.12248 -0.40927,-2.55941 -3.59922,-7.21645 -6.17786,-9.01912 -9.946579,-6.953396 -20.298016,2.04371 -12.163799,10.57235 1.683517,1.76515 5.732208,4.78281 6.891991,5.13688 0.342428,0.10454 0.80119,0.3421 1.019472,0.52791 0.218281,0.18581 1.113635,0.73728 1.989676,1.22548 1.984028,1.10567 5.12885,3.25639 6.42376,4.39316 0.5386,0.47283 1.05596,0.85978 1.14969,0.8599 0.31364,3.8e-4 3.12851,3.85654 3.97359,5.44351 1.76687,3.31801 1.42278,7.45336 -0.98143,11.79503 -0.95829,1.73054 -5.3434,5.24664 -6.55114,5.25288 -0.17358,8.9e-4 -0.66478,0.18371 -1.09154,0.40626 -2.472142,1.28915 -9.585965,1.14518 -14.082184,-0.28499 -3.676048,-1.16929 -5.339477,-1.2198 -6.225458,-0.18905 -1.039661,1.20955 -1.427504,1.448 -1.726721,1.0616 z m -65.295952,-0.7559 c -1.891771,-0.0986 -4.2531771,-0.1928 -5.2475694,-0.20939 -2.3858695,-0.0398 -2.3086862,-0.63109 0.1089635,-0.83474 2.4684969,-0.20794 3.9605659,-1.14948 5.0422129,-3.1818 l 0.624294,-1.173 0.07701,-19.44687 C 14.088858,96.455801 14.333899,97.362018 7.5012258,96.621811 3.7536861,96.215827 6.6552944,95.825372 13.743187,95.781862 c 8.461644,-0.05194 7.489615,-0.367128 9.217884,2.988944 1.880915,3.652484 2.571552,5.088454 5.137044,10.680904 0.450606,0.98227 1.284044,2.71834 1.852083,3.85794 0.568039,1.1396 1.032799,2.18385 1.032799,2.32055 0,0.24089 1.084892,2.61873 3.186708,6.98453 0.560461,1.16417 1.100471,2.40877 1.200021,2.76579 0.09955,0.35701 0.343887,0.812 0.542969,1.01108 0.199083,0.19909 0.361968,0.54305 0.361968,0.76436 0,0.22132 0.238125,0.70512 0.529167,1.07512 0.291042,0.37 0.529167,0.93827 0.529167,1.26282 0,0.32455 0.238125,0.89282 0.529166,1.26282 0.291042,0.37 0.529167,0.85528 0.529167,1.0784 0,1.47151 1.167668,0.54342 2.34422,-1.86324 0.484227,-0.99049 0.989173,-1.97949 1.122101,-2.19777 0.132928,-0.21828 0.369748,-0.69453 0.526266,-1.05833 0.156519,-0.36381 0.512843,-1.10177 0.79183,-1.63992 0.278987,-0.53816 0.50725,-1.14866 0.50725,-1.35667 0,-0.20801 0.181067,-0.52848 0.402372,-0.71214 0.221304,-0.18367 0.532188,-0.84949 0.690853,-1.47961 0.158665,-0.63011 0.453848,-1.2829 0.655962,-1.45064 0.202114,-0.16774 0.36748,-0.42124 0.36748,-0.56333 0,-0.14209 0.193038,-0.69306 0.428973,-1.22437 1.238575,-2.78922 1.778126,-3.96347 2.206674,-4.80249 0.260146,-0.50932 0.555109,-1.30477 0.655472,-1.76766 0.100363,-0.46288 0.353419,-0.98348 0.562346,-1.15687 0.208927,-0.1734 0.379868,-0.48665 0.379868,-0.69613 0,-0.20947 0.307996,-1.0581 0.684435,-1.88583 0.376439,-0.82773 0.840643,-1.86216 1.031564,-2.29872 0.19092,-0.43656 0.643778,-1.44859 1.00635,-2.24896 0.362573,-0.80036 0.919606,-2.05052 1.237853,-2.77812 0.318246,-0.727607 0.731838,-1.620575 0.919093,-1.984377 0.187254,-0.363802 0.418064,-0.987374 0.512909,-1.385716 0.35085,-1.473525 0.734738,-1.540446 8.392656,-1.463026 4.458311,0.04507 6.974253,0.166323 6.955412,0.3352 -0.02683,0.24046 -2.438294,1.171529 -4.071522,1.572018 -1.446514,0.354704 -1.91735,1.477537 -1.870059,4.459651 0.06486,4.0901 0.06586,4.67171 0.03806,22.1834 -0.01424,8.96985 0.05522,16.53032 0.154341,16.80104 0.542834,1.48253 1.701804,2.30784 4.191198,2.9846 5.17935,1.40804 -4.684569,2.06708 -16.801042,1.12253 -2.614567,-0.20383 -2.946487,-0.63579 -0.661458,-0.86084 1.783918,-0.17569 2.872381,-0.74144 3.99652,-2.07727 l 0.76598,-0.91022 0.0052,-11.78954 c 0.0095,-21.57089 -0.250055,-27.50571 -1.09238,-24.97456 -0.151577,0.45548 -0.757654,1.80502 -2.059604,4.58607 -0.306566,0.65484 -0.685679,1.36921 -0.842475,1.5875 -0.156795,0.21828 -0.425233,0.88876 -0.596529,1.48996 -0.171296,0.6012 -0.489493,1.24086 -0.707105,1.42146 -0.217612,0.1806 -0.395658,0.55809 -0.395658,0.83887 0,0.28077 -0.235092,0.9508 -0.522428,1.48895 -1.031879,1.93262 -2.652572,5.56423 -2.652572,5.94382 0,0.21298 -0.238125,0.68997 -0.529167,1.05997 -0.291041,0.37 -0.529166,0.87801 -0.529166,1.12893 0,0.25091 -0.225282,0.82744 -0.500626,1.28118 -0.275343,0.45374 -0.58246,1.21193 -0.68248,1.68488 -0.100021,0.47294 -0.291459,0.85989 -0.425417,0.85989 -0.133958,0 -0.244006,0.20836 -0.24455,0.46302 -5.44e-4,0.25466 -0.231648,0.84131 -0.513564,1.30366 -0.281916,0.46235 -0.591582,1.26178 -0.688147,1.77651 -0.09656,0.51473 -0.34171,1.07376 -0.544769,1.24228 -0.203059,0.16853 -0.373237,0.55972 -0.378175,0.86932 -0.0049,0.30961 -0.239023,1.03917 -0.520189,1.62125 -0.281166,0.58209 -0.515251,1.19072 -0.520189,1.35252 -0.0049,0.16179 -0.485228,1.22004 -1.067311,2.35165 -0.582084,1.13161 -1.058334,2.21112 -1.058334,2.3989 0,0.18779 -0.208359,0.54826 -0.46302,0.80105 -0.254662,0.25279 -0.641615,0.93217 -0.859896,1.50973 -0.825071,2.1831 -2.579549,1.89945 -3.027716,-0.48948 -0.08871,-0.47286 -0.33673,-1.00534 -0.551161,-1.1833 -0.21443,-0.17796 -0.389873,-0.43543 -0.389873,-0.57214 0,-0.13671 -0.308913,-0.92581 -0.686474,-1.75354 -2.659616,-5.83073 -3.574029,-7.8014 -4.631769,-9.98203 -0.567466,-1.16988 -1.031757,-2.22178 -1.031757,-2.33755 0,-0.11578 -0.700472,-1.65891 -1.556604,-3.42919 -0.856132,-1.77029 -1.872685,-3.93307 -2.259007,-4.8062 -0.386323,-0.87312 -0.817809,-1.76609 -0.958859,-1.98437 -0.14105,-0.21829 -0.390104,-0.69454 -0.553454,-1.05834 -0.163349,-0.3638 -0.743848,-1.61396 -1.289998,-2.77812 -0.546149,-1.16417 -1.315602,-2.83104 -1.709896,-3.70417 -0.394295,-0.87312 -0.868315,-1.88516 -1.053378,-2.24896 -0.185063,-0.3638 -0.421506,-1.01696 -0.525429,-1.45147 -0.648578,-2.71174 -0.807929,0.57302 -0.80846,16.66501 -6.88e-4,20.9003 -0.165155,20.29606 5.945907,21.84504 1.508607,0.38239 0.889003,1.02333 -1.036079,1.07177 -0.663411,0.0167 -2.09917,0.0514 -3.190577,0.0771 -1.091406,0.0257 -3.532187,-0.0339 -5.423958,-0.13248 z m 107.553125,-0.0806 c -4.28612,-0.30439 -5.30784,-0.70486 -2.48732,-0.97493 1.73247,-0.16589 3.05316,-0.93044 3.98898,-2.30925 0.45716,-0.67357 0.48272,-1.81792 0.48272,-21.61331 V 99.595984 l -0.76206,-0.952433 c -0.58772,-0.734557 -1.13245,-1.057904 -2.38125,-1.413496 -2.82199,-0.803556 -2.94211,-0.848292 -2.94211,-1.095703 0,-0.314712 23.8904,-0.41611 25.66458,-0.108928 0.72761,0.125977 2.27542,0.369994 3.43959,0.542259 1.16416,0.172266 2.67452,0.537152 3.35634,0.81086 0.68182,0.273707 1.51525,0.498434 1.85208,0.499393 0.33682,9.59e-4 0.9696,0.238299 1.40616,0.527423 0.43656,0.289124 0.94812,0.526465 1.13681,0.527424 1.38694,0.007 6.67513,4.075797 8.78506,6.759247 0.77191,0.98172 1.84252,2.63816 1.84727,2.85805 0.003,0.12257 0.24294,0.52558 0.53398,0.89558 0.29105,0.37 0.5299,0.86503 0.5308,1.10007 9e-4,0.23503 0.19118,0.78452 0.42284,1.22109 0.23167,0.43656 0.5827,1.68672 0.78008,2.77812 0.19738,1.09141 0.47816,2.52016 0.62397,3.175 0.58249,2.61611 -0.23337,9.30543 -1.40375,11.50938 -0.23183,0.43656 -0.43015,0.97234 -0.44072,1.19062 -0.0106,0.21828 -0.36573,0.99219 -0.78926,1.71979 -0.42352,0.72761 -0.96683,1.67429 -1.20735,2.10373 -0.24052,0.42945 -0.60046,0.94397 -0.79987,1.14338 -0.19941,0.19941 -0.36257,0.46658 -0.36257,0.5937 0,1.37252 -8.86838,7.39621 -10.89845,7.40258 -0.24607,7.7e-4 -0.51604,0.11246 -0.59992,0.24819 -0.0839,0.13573 -0.83506,0.37768 -1.66926,0.53767 -0.83421,0.15998 -2.17159,0.46064 -2.97195,0.66811 -3.21,0.83212 -16.97546,1.13797 -25.13542,0.55847 z m 21.6401,-2.89698 c 1.49732,-0.23186 2.98232,-0.60362 3.30002,-0.82614 0.31769,-0.22252 0.83273,-0.40458 1.14453,-0.40458 0.3118,0 0.86963,-0.23813 1.23963,-0.52917 0.37,-0.29104 0.79681,-0.52917 0.94846,-0.52917 0.51369,0 2.76019,-1.67432 4.11433,-3.06642 4.27291,-4.39269 5.88866,-9.31108 5.64451,-17.18205 -0.0661,-2.12936 -0.24898,-3.96209 -0.42905,-4.29855 -0.17265,-0.32259 -0.43447,-1.23873 -0.58183,-2.03587 -0.53286,-2.88255 -3.53308,-7.79748 -6.12662,-10.03658 -1.62859,-1.40601 -4.13418,-3.06802 -4.62526,-3.06802 -0.18681,0 -0.33965,-0.10385 -0.33965,-0.23077 0,-0.12692 -0.44649,-0.304407 -0.99219,-0.394409 -0.5457,-0.09 -1.33058,-0.341972 -1.74416,-0.559934 -2.35743,-1.242383 -11.96907,-1.221948 -12.78754,0.02719 -0.57284,0.874276 -0.54067,40.684146 0.0338,41.791396 0.96228,1.8548 4.87019,2.32338 11.20104,1.34308 z m 33.26094,2.95197 c -4.46644,-0.28081 -6.36981,-0.88921 -3.09434,-0.9891 0.98516,-0.03 2.85075,-1.00055 3.57275,-1.85861 0.98778,-1.17391 1.02086,-2.01423 0.92817,-23.58041 l -0.0837,-19.467307 -0.79375,-0.947553 c -0.43656,-0.521154 -1.15094,-1.032446 -1.5875,-1.136203 -1.99067,-0.473123 -3.70351,-1.261662 -3.1691,-1.45896 0.64346,-0.237558 19.53346,-0.336781 19.76642,-0.103827 0.30211,0.302112 -0.10707,0.909279 -0.61278,0.909279 -2.49081,0 -5.25841,1.916774 -5.28219,3.658321 -0.13097,9.59092 0.0801,40.68668 0.27865,41.05774 0.14266,0.26657 0.64733,0.56763 1.12149,0.66903 0.47415,0.10139 0.98115,0.27518 1.12668,0.38621 0.59053,0.45054 11.61249,0.82532 12.27267,0.41731 0.13936,-0.0861 0.59017,-0.20899 1.00181,-0.27303 0.41164,-0.064 1.28421,-0.20109 1.93906,-0.30455 3.81847,-0.60332 8.0092,-4.29421 9.80496,-8.63551 0.16553,-0.40018 0.45818,-0.7276 0.65032,-0.7276 0.19215,0 0.53769,-0.0723 0.76787,-0.1606 0.55418,-0.21266 0.57968,1.09556 0.032,1.64321 -0.21256,0.21256 -0.45208,0.82914 -0.53226,1.37016 -0.0802,0.54103 -0.27093,1.45993 -0.42389,2.04202 -0.15295,0.58208 -0.43897,1.83224 -0.63559,2.77812 -0.3931,1.89113 -1.10211,4.49144 -1.27057,4.65991 -0.21514,0.21514 -32.43743,0.26192 -35.77725,0.052 z"
       id="path1" /></g></svg>
