<?xml version="1.0" encoding="UTF-8" standalone="no"?>
<!-- Created with Inkscape (http://www.inkscape.org/) -->

<svg
   version="1.1"
   id="svg1"
   width="1254"
   height="1254"
   viewBox="0 0 1254 1254"
   sodipodi:docname="foresight-mask.svg"
   inkscape:version="1.4.2 (ebf0e940, 2025-05-08)"
   xmlns:inkscape="http://www.inkscape.org/namespaces/inkscape"
   xmlns:sodipodi="http://sodipodi.sourceforge.net/DTD/sodipodi-0.dtd"
   xmlns="http://www.w3.org/2000/svg"
   xmlns:svg="http://www.w3.org/2000/svg">
  <defs
     id="defs1" />
  <sodipodi:namedview
     id="namedview1"
     pagecolor="#ffffff"
     bordercolor="#000000"
     borderopacity="0.25"
     inkscape:showpageshadow="2"
     inkscape:pageopacity="0.0"
     inkscape:pagecheckerboard="0"
     inkscape:deskcolor="#d1d1d1"
     inkscape:zoom="0.66347687"
     inkscape:cx="626.24639"
     inkscape:cy="626.24639"
     inkscape:window-width="2560"
     inkscape:window-height="1292"
     inkscape:window-x="0"
     inkscape:window-y="30"
     inkscape:window-maximized="1"
     inkscape:current-layer="g1" />
  <g
     inkscape:groupmode="layer"
     inkscape:label="Image"
     id="g1">
    <path
       style="fill:#000000"
       d="m 602.5,1148.4191 c -42.95453,-3.2141 -63.13274,-6.27 -95.87492,-14.5197 C 264.21999,1072.8231 96.237729,823.50459 129.04722,573.5 202.06897,17.082565 984.83512,-27.986285 1110.3522,517 1185.3709,842.72578 920.37057,1172.204 602.5,1148.4191 Z m 81,-36.7642 c 446.3828,-67.5604 556.5011,-672.79069 162,-890.38137 C 519.09474,41.241746 114.30629,318.39292 162.37004,689 192.48829,921.234 363.12442,1093.2098 584,1113.9401 c 20.59196,1.9327 80.76247,0.5507 99.5,-2.2852 z M 532.5943,995.94301 c -30.25749,-5.06844 -47.46044,-41.48069 -33.20574,-70.2842 l 2.48541,-5.02211 -5.78907,-8.06835 C 459.91719,862.16064 429.43306,793.21755 417.90223,735.75 416.60554,729.2875 415.26761,724 414.92907,724 c -1.00716,0 -23.47449,31.93855 -44.0723,62.65123 l -15.52665,23.15124 2.33042,3.84876 c 19.89025,32.8494 -11.45253,74.6951 -47.53564,63.46477 -45.81594,-14.25952 -37.0157,-80.98693 10.93886,-82.94346 l 9.56376,-0.39019 2.8811,-4.64118 c 12.77769,-20.5836 52.15977,-77.43385 67.0962,-96.85714 l 6.31805,-8.21598 -6.00914,-5.73175 c -24.18561,-23.06916 -24.3832,-60.00274 -0.44783,-83.70622 l 7.29869,-7.22798 -7.46683,-8.95105 c -27.19157,-32.59657 -43.76369,-54.41434 -59.20757,-77.94882 l -11.14645,-16.98575 -6.22187,0.28713 c -38.25538,1.76541 -58.39903,-45.43833 -31.00026,-72.64463 35.29406,-35.04612 90.90705,10.79075 64.52721,53.18407 -1.31526,2.11367 -2.15832,4.4504 -1.87346,5.19273 3.16866,8.25741 54.62686,77.47389 57.5883,77.46208 0.29499,-0.001 1.81095,-5.96368 3.3688,-13.25 6.04243,-28.26147 20.65585,-67.66419 37.92101,-102.24786 9.45077,-18.93075 18.37103,-34.28873 32.32327,-55.65087 l 10.22205,-15.65087 -1.89383,-3.11414 c -26.38209,-43.38187 33.21268,-89.68077 69.1619,-53.73155 29.40764,29.40764 6.24677,77.30152 -36.46677,75.40886 L 521.70018,378.5 515.30704,388 c -40.17053,59.69208 -68.59407,130.79253 -74.6563,186.75 -0.84612,7.8101 3.4842,6.14334 12.97334,-4.9935 C 484.00785,534.09687 533.61623,494.16363 581.5,466.82028 l 13,-7.42347 0.68544,-6.88509 c 4.543,-45.63363 64.86755,-54.45383 80.43846,-11.76109 13.8798,38.05599 -28.43952,72.08081 -61.76178,49.65658 -6.58155,-4.42905 -5.21451,-4.77567 -22.39072,5.67722 -41.83902,25.46188 -74.90357,51.98113 -105.7214,84.79329 -12.57122,13.38474 -11.97243,11.40131 -5.87428,19.45808 2.68164,3.54294 6.16914,9.63623 7.75,13.54064 l 2.87428,7.09892 151.5,-0.0734 c 151.45242,-0.0734 151.49764,-0.074 144,-1.99526 -65.19475,-16.70623 -105.00112,-35.5715 -137.53685,-65.18229 -9.1285,-8.30785 -24.72705,-25.57388 -25.24268,-27.94113 -0.15374,-0.70582 10.34298,3.9532 23.32605,10.35339 75.26957,37.10517 161.37452,60.05167 257.70348,68.67656 10.71347,0.95924 10.79042,4.3247 -0.67023,-29.31523 -6.18598,-18.15742 -8.92653,-27.46134 -7.98226,-27.09898 0.79089,0.30349 10.09249,6.01118 20.67023,12.68377 31.20619,19.68529 29.98362,18.92425 97.95666,60.97699 11.9484,7.39211 21.7359,13.687 21.75,13.98866 0.027,0.57092 -6.1947,4.6382 -51.9744,33.97873 -15.125,9.69372 -41.59496,26.72989 -58.82212,37.85817 -17.22717,11.12827 -31.683,20.09403 -32.12407,19.92392 -0.44107,-0.17011 3.86533,-13.58429 9.56978,-29.80929 5.70445,-16.225 10.37278,-29.8306 10.37407,-30.23467 0.005,-1.66013 -49.19636,4.03136 -80.49766,9.3117 -76.58943,12.92019 -144.35863,35.16229 -201.05767,65.98788 -17.25959,9.38353 -17.48215,9.37842 -9.30757,-0.21346 36.55039,-42.88752 94.0104,-73.84625 167.36524,-90.17427 1.1,-0.24485 -65.725,-0.48252 -148.5,-0.52817 l -150.5,-0.083 -4.16583,8.71698 c -2.29121,4.79435 -5.82387,10.64128 -7.85036,12.9932 l -3.68452,4.27621 4.26011,5.64248 c 30.7094,40.67431 83.0693,83.84875 130.4406,107.5575 l 7,3.50341 4.5,-3.51223 c 39.24446,-30.63019 88.8115,18.2139 60.37829,59.49766 -23.25009,33.7581 -77.19121,16.47988 -77.36351,-24.7808 -0.0141,-3.36755 -0.36712,-3.72738 -7.26478,-7.40412 -58.64547,-31.26046 -100.77105,-65.76611 -143.00836,-117.14014 -5.9275,-7.20972 -6.95566,-8.03838 -9.50869,-7.66368 l -2.86255,0.42014 1.29578,8.14327 c 10.58243,66.50466 38.50351,136.50386 75.90605,190.2993 l 6.33756,9.11522 5.26304,-1.36522 c 18.64605,-4.83672 38.62366,3.09526 49.74622,19.75143 23.76124,35.58274 -5.70664,82.79786 -47.32475,75.82637 z"
       id="path1" />
  </g>
</svg>
