<?xml version="1.0" encoding="UTF-8" standalone="no"?>
<!-- Created with Inkscape (http://www.inkscape.org/) -->

<svg
   width="1254"
   height="1254"
   viewBox="0 0 331.78752 331.78752"
   version="1.1"
   id="svg1"
   xml:space="preserve"
   inkscape:version="1.4.2 (ebf0e940, 2025-05-08)"
   sodipodi:docname="flame-mask.svg"
   xmlns:inkscape="http://www.inkscape.org/namespaces/inkscape"
   xmlns:sodipodi="http://sodipodi.sourceforge.net/DTD/sodipodi-0.dtd"
   xmlns="http://www.w3.org/2000/svg"
   xmlns:svg="http://www.w3.org/2000/svg"><sodipodi:namedview
     id="namedview1"
     pagecolor="#ffffff"
     bordercolor="#000000"
     borderopacity="0.25"
     inkscape:showpageshadow="2"
     inkscape:pageopacity="0.0"
     inkscape:pagecheckerboard="0"
     inkscape:deskcolor="#d1d1d1"
     inkscape:document-units="mm"
     inkscape:zoom="0.89887065"
     inkscape:cx="510.64077"
     inkscape:cy="639.13534"
     inkscape:window-width="2560"
     inkscape:window-height="1292"
     inkscape:window-x="0"
     inkscape:window-y="30"
     inkscape:window-maximized="1"
     inkscape:current-layer="layer1" /><defs
     id="defs1" /><g
     inkscape:label="Layer 1"
     inkscape:groupmode="layer"
     id="layer1"
     transform="translate(30.427076,-12.96459)"><path
       style="fill:#000000;stroke-width:1.41015"
       d="m 142.56143,287.613 c 0,-0.0991 0.79751,-0.58968 1.77223,-1.09009 12.12309,-6.22365 23.24093,-18.67704 26.90088,-30.13239 4.86634,-15.23126 1.22005,-25.67304 -16.91586,-48.44129 -12.52392,-15.72283 -15.84135,-21.0491 -18.93932,-30.40792 -2.60974,-7.88391 -3.64302,-19.22012 -2.29553,-25.18445 0.27014,-1.19566 -1.83622,1.07867 -4.87697,5.26596 -12.81182,17.6425 -16.84896,48.15228 -9.51402,71.90005 0.9229,2.98806 0.96602,2.9543 -1.71662,1.34408 -9.60804,-5.76714 -17.515006,-15.36679 -20.526669,-24.92089 l -0.647787,-2.05503 -1.069761,1.68685 c -14.765412,23.28264 -9.848787,56.00169 10.839247,72.1327 3.22958,2.5182 3.18668,2.57057 -0.79186,0.96663 C 50.602369,256.83602 40.828164,185.06742 86.629288,145.4073 c 4.279356,-3.70557 4.293225,-3.70767 3.282045,-0.49647 -3.875086,12.30605 -1.568116,27.76166 5.361693,35.92088 l 1.210183,1.42489 0.02675,-9.0735 c 0.05468,-18.55715 3.906661,-29.06226 19.208451,-52.38572 14.28117,-21.767813 18.64083,-32.427934 18.77321,-45.903812 l 0.048,-4.894775 1.6022,1.099755 c 25.54445,17.533788 36.072,60.792222 22.63039,92.990022 -0.27851,0.66716 -0.18539,0.65444 1.16405,-0.15876 13.52097,-8.14833 20.08207,-18.35036 20.58122,-32.00234 l 0.19446,-5.31871 3.22081,4.07432 c 14.05164,17.77543 17.19153,38.33053 9.16294,59.98477 -1.34364,3.62402 -4.96614,10.88937 -6.05858,12.15121 -0.99311,1.1471 -0.12325,0.71424 3.71086,-1.8465 7.76786,-5.18802 13.14319,-12.91256 14.86595,-21.36281 l 0.64987,-3.18774 0.64484,1.49242 c 18.61245,43.07696 -3.85779,90.65421 -50.23341,106.36146 -5.7387,1.94368 -14.11388,3.92394 -14.11388,3.33711 z"
       id="path1" /></g></svg>
