<?xml version="1.0" encoding="UTF-8" standalone="no"?>
<!-- Created with Inkscape (http://www.inkscape.org/) -->

<svg
   width="1254"
   height="1254"
   viewBox="0 0 331.78749 331.78749"
   version="1.1"
   id="svg1"
   xml:space="preserve"
   inkscape:version="1.4.2 (ebf0e940, 2025-05-08)"
   sodipodi:docname="liar-mask.svg"
   xmlns:inkscape="http://www.inkscape.org/namespaces/inkscape"
   xmlns:sodipodi="http://sodipodi.sourceforge.net/DTD/sodipodi-0.dtd"
   xmlns="http://www.w3.org/2000/svg"
   xmlns:svg="http://www.w3.org/2000/svg"><sodipodi:namedview
     id="namedview1"
     pagecolor="#ffffff"
     bordercolor="#000000"
     borderopacity="0.25"
     inkscape:showpageshadow="2"
     inkscape:pageopacity="0.0"
     inkscape:pagecheckerboard="0"
     inkscape:deskcolor="#d1d1d1"
     inkscape:document-units="mm"
     inkscape:zoom="0.44943533"
     inkscape:cx="1439.5842"
     inkscape:cy="766.51741"
     inkscape:window-width="2560"
     inkscape:window-height="1292"
     inkscape:window-x="0"
     inkscape:window-y="30"
     inkscape:window-maximized="1"
     inkscape:current-layer="layer1" /><defs
     id="defs1" /><g
     inkscape:label="Layer 1"
     inkscape:groupmode="layer"
     id="layer1"><path
       style="fill:#000000;stroke-width:0.306922"
       d="m 183.53101,236.23097 c -7.041,-3.14283 -6.07134,-14.29324 1.40293,-16.13277 l 1.02881,-0.25321 v -5.31478 -5.31481 l 1.32208,-0.63046 c 0.72715,-0.34675 1.40057,-0.63044 1.49645,-0.63044 0.34401,0 0.16652,10.53905 -0.18867,11.20271 -0.31012,0.57944 -0.1039,0.78601 1.41373,1.41673 l 1.77674,0.73839 3.80062,-5.6501 c 2.09034,-3.10757 5.73293,-8.45456 8.09465,-11.88219 2.3617,-3.42765 4.46895,-6.55896 4.68277,-6.95847 0.32843,-0.61367 -0.36333,-1.83966 -4.45783,-7.90048 l -4.84659,-7.17411 v -2.31802 c 0,-2.96981 -0.007,-2.97752 5.86113,5.71258 5.79128,8.57499 5.61542,8.34145 6.06992,8.06057 0.2163,-0.13371 3.85544,-5.31417 8.08694,-11.51215 l 7.69364,-11.26906 -0.63779,-1.3418 c -3.29297,-6.92765 3.10037,-13.90823 10.3851,-11.33897 l 2.10523,0.7425 8.10468,-8.11098 8.10467,-8.11096 -0.75532,-1.66505 c -1.47748,-3.25698 -0.7076,-8.43355 1.45515,-9.78421 0.66573,-0.41576 0.57096,-0.60741 -1.43243,-2.89707 -4.1809,-4.77828 -15.51234,-17.79182 -15.56887,-17.87999 -0.0316,-0.0492 -0.76067,0.18674 -1.62022,0.52438 l -1.56284,0.61389 v 21.98922 c 0,19.49137 -0.0667,22.05599 -0.58788,22.5771 -1.31359,1.31358 -2.47568,0.0778 -2.39786,-2.55 0.0312,-1.05196 0.0423,-10.92031 0.0246,-21.92968 l -0.0319,-20.01705 -1.3994,-0.43799 c -0.76967,-0.24092 -1.41671,-0.40837 -1.43787,-0.37214 -0.0211,0.0362 -0.96545,1.41269 -2.09843,3.05879 -14.34869,20.84726 -14.5182,21.10236 -14.5182,21.85089 0,0.38034 3.10756,5.05603 10.83904,16.30865 4.43832,6.45965 4.4966,6.5919 3.26179,7.40098 -1.27758,0.83711 -1.11513,1.0252 -8.49212,-9.83272 -7.71545,-11.35608 -7.60312,-11.19674 -7.9036,-11.21163 -0.13051,-0.006 -2.21807,2.97647 -4.63904,6.62875 -2.42098,3.65229 -4.94996,7.35954 -5.61993,8.23835 l -1.21817,1.59784 -0.14038,-2.15901 -0.14037,-2.15901 4.98889,-7.41325 4.98889,-7.41327 -0.67481,-1.08388 c -0.37115,-0.59614 -3.62097,-5.31356 -7.2218,-10.48316 -3.60085,-5.1696 -7.19169,-10.37301 -7.97966,-11.56312 l -1.43267,-2.16384 -1.46671,0.70864 -1.46671,0.70862 v 10.09764 10.09763 l -1.52837,-1.01142 -1.52836,-1.01143 0.12544,-9.1435 0.12545,-9.14349 -1.5765,-0.46916 c -5.60708,-1.66865 -7.03249,-5.15171 -4.43783,-10.84418 3.42978,-7.524743 14.39926,-6.419011 15.72916,1.58552 l 0.26343,1.58551 14.04999,0.0979 c 12.63896,0.0881 14.08946,0.16061 14.44306,0.72134 1.08974,1.72809 0.42581,1.80839 -14.95403,1.80839 h -14.36361 l -0.60545,1.2696 -0.60542,1.26961 3.36747,4.80973 c 1.85211,2.64536 5.28904,7.59111 7.63761,10.99055 5.28596,7.65114 5.68367,8.19619 5.99123,8.21079 0.25122,0.0119 2.25833,-2.84122 11.41871,-16.23206 5.01463,-7.33044 5.09008,-7.47095 4.62041,-8.60459 -2.67735,-6.46247 0.56034,-12.04984 7.23051,-12.477907 6.56523,-0.42133 10.61337,5.669427 7.62766,11.476447 -0.9087,1.76736 -0.94772,1.66824 1.90951,4.84997 1.41031,1.57047 5.3957,6.13825 8.85639,10.15061 l 6.29218,7.29521 2.46053,0.0184 c 9.66767,0.0724 12.54153,12.92476 3.55336,15.89114 -0.91632,0.30241 -1.28818,0.65325 -1.30916,1.23514 -0.0295,0.817 -0.0178,36.49299 0.0128,39.41091 0.0153,1.45413 0.10825,1.59128 1.35788,2.0037 9.40788,3.10488 5.24646,16.58741 -4.82334,15.6271 -1.61141,-0.15367 -2.17667,0.4207 -13.14494,13.35609 -2.44258,2.88067 -4.74827,5.58188 -5.12372,6.00268 -0.66143,0.7413 -0.65961,0.82573 0.0587,2.71634 2.35555,6.19929 -1.2252,10.84993 -8.4567,10.98347 -3.92564,0.0724 -5.7169,-1.12763 -7.10395,-4.75956 l -0.63469,-1.66191 h -15.02309 -15.02319 l -0.43975,1.64421 c -1.10735,4.14028 -7.31298,6.8026 -11.5,4.93369 z m 31.15667,-9.56912 c 10.10965,-8.2e-4 10.96934,-0.0523 11.14615,-0.65639 0.1054,-0.3601 0.49231,-1.25926 0.85988,-1.99816 l 0.66829,-1.34344 -2.57147,-3.70708 c -1.41429,-2.0389 -3.31961,-4.80136 -4.23404,-6.13882 -11.18403,-16.35805 -8.87838,-15.6486 -16.14813,-4.96872 -3.25206,4.77754 -6.90522,10.11376 -8.11815,11.85827 l -2.20532,3.17183 0.48597,1.79688 c 0.26727,0.98827 0.56913,1.94743 0.67079,2.13144 0.10389,0.18809 2.00331,0.22979 4.33815,0.0953 2.28433,-0.13164 9.08288,-0.24011 15.10788,-0.24104 z m 25.14448,-6.45516 c 0.70456,-0.89057 10.91197,-12.9326 13.96145,-16.47085 l 1.79986,-2.08833 -1.05163,-1.58911 c -1.48677,-2.24657 -1.71439,-6.5978 -0.47869,-9.15039 l 0.83814,-1.73141 -3.70786,-3.79855 c -2.03932,-2.0892 -5.30297,-5.47438 -7.25255,-7.52262 -5.42073,-5.69514 -5.19551,-5.54128 -7.0474,-4.81385 l -1.54779,0.60798 v 22.33207 c 0,21.97102 -0.0122,22.34318 -0.75986,23.01973 -2.0825,1.88465 -2.12331,1.40617 -2.18687,-25.63928 l -0.0462,-19.64293 -1.21587,-0.41038 c -0.66873,-0.22569 -1.48273,-0.52678 -1.80892,-0.66907 -0.44814,-0.1955 -1.05349,0.45376 -2.47735,2.65703 -1.71766,2.65789 -6.10802,9.10365 -11.77332,17.2851 -2.73872,3.95512 -3.06689,2.74723 3.22076,11.85454 11.9908,17.368 11.18705,16.29394 11.99708,16.03187 1.74269,-0.5638 5.27148,-0.58121 6.73403,-0.0332 1.99168,0.74626 2.03469,0.74275 2.80296,-0.22833 z m 20.06472,-33.20255 c 0.89268,0 0.75245,-41.89586 -0.14029,-41.91394 -0.36008,-0.008 -1.07558,-0.25099 -1.58998,-0.54153 -0.92033,-0.51983 -1.06801,-0.39591 -9.23481,7.7485 l -8.29953,8.2768 0.55668,1.07652 c 0.90893,1.75766 1.04943,4.41435 0.35903,6.78918 l -0.62115,2.13673 8.15226,8.42823 c 7.58987,7.84683 8.22643,8.41343 9.2278,8.21386 0.59158,-0.11788 1.30707,-0.21435 1.58999,-0.21435 z m -114.4848,37.22769 c -1.24454,-0.84457 -7.08341,-5.33722 -16.68867,-12.84085 -5.66488,-4.42541 -5.0082,0.6671 -5.31495,-41.21756 -0.32178,-43.93867 -1.01486,-38.35544 5.3473,-43.0758 1.76679,-1.31082 5.80719,-4.39284 8.97872,-6.84889 3.17153,-2.45607 6.4948,-5.02343 7.38505,-5.70524 2.39154,-1.83161 -1.11902,-3.53207 33.36095,16.15963 4.01236,2.2915 9.11962,5.15883 11.34944,6.37188 5.87235,3.19462 5.27782,-0.19183 5.4161,30.84936 0.15574,34.9686 0.84557,31.31138 -6.66448,35.33372 -2.36627,1.26737 -7.83767,4.29488 -12.15869,6.72783 -4.321,2.43294 -11.56009,6.481 -16.08685,8.99571 -4.52678,2.5147 -8.81973,4.93378 -9.5399,5.37574 -1.75678,1.07809 -3.67633,1.03334 -5.38402,-0.12553 z m 29.99621,-4.2824 c -2.90888,-2.97299 -2.96801,-3.14953 -1.33729,-3.99281 l 1.20224,-0.6217 2.34178,2.57618 c 2.47324,2.72075 2.81825,3.61503 1.63829,4.24653 -1.09731,0.58726 -1.12589,0.57085 -3.84502,-2.2082 z M 66.052478,205.56257 c -8.003462,-3.48734 -4.231924,-14.91764 4.944342,-14.98468 3.123471,-0.0229 2.644039,0.55219 5.163254,-6.19254 0.883822,-2.36626 2.822569,-7.33262 4.308341,-11.03634 1.485763,-3.70372 3.005728,-7.60788 3.377698,-8.67589 l 0.676319,-1.94184 -1.375119,-0.69862 c -6.358795,-3.23056 -2.757696,-14.89891 4.584936,-14.85621 6.818763,0.0396 10.718893,5.48674 8.084143,11.29065 l -0.71683,1.57908 4.48639,2.91029 c 2.467498,1.60065 8.012658,5.25074 12.322568,8.11133 l 7.83617,5.20104 v 1.47949 c 0,1.87869 0.46485,2.08559 -8.30658,-3.69725 -3.97051,-2.6177 -9.86366,-6.48935 -13.095858,-8.60366 l -5.876745,-3.84423 -2.464045,0.68327 c -1.355224,0.3758 -2.516428,0.74586 -2.580454,0.82237 -0.201512,0.24079 -11.073453,28.22383 -11.073453,28.50167 0,0.0896 0.422073,0.91804 0.937945,1.84105 l 0.937947,1.67816 5.702561,-1.59245 c 5.775577,-1.61284 24.064452,-6.55409 30.581092,-8.26233 1.95476,-0.5124 3.8487,-1.0177 4.20879,-1.12288 0.97657,-0.28526 0.95362,2.7068 -0.0231,3.01681 -0.37281,0.11833 -3.19269,0.86927 -6.2664,1.66879 -3.07371,0.7995 -11.39667,3.00741 -18.495468,4.9065 -7.098787,1.89907 -13.53822,3.62102 -14.309826,3.82657 -1.158964,0.30874 -1.402929,0.54043 -1.402929,1.33243 0,4.73849 -7.345801,8.75956 -12.165639,6.65942 z M 199.0567,166.47985 v -1.54838 h 11.58436 c 10.91496,0 11.60589,0.0402 11.95713,0.69653 0.95388,1.78234 0.32755,1.89454 -12.0375,2.15652 l -11.50399,0.24373 z m -29.21334,-45.58527 c -0.49651,-0.33473 -0.97877,-0.67028 -1.07165,-0.74566 -0.34068,-0.27648 9.90633,-10.21211 10.53216,-10.21211 2.32624,0 1.59985,1.46489 -3.12694,6.30602 -5.49684,5.62982 -5.20294,5.41397 -6.33357,4.65175 z"
       id="path1"
       sodipodi:nodetypes="sscccsssscsssscsssscsscccssssscsssscsssssssssscccccssscccccccccssscssscccssssssssscssssssssssscccsssssscsssscsssssscsscssscssscsssssssssssscsscssssssssssssssssssscsssssssscssscsscssscsssscssssssssssccsssccsssss" /><path
       style="fill:#000000;stroke-width:0.264583"
       d="M 160.18726,300.28324 C 148.8222,299.43284 143.48339,298.6243 134.82035,296.44157 70.683998,280.2818 26.238698,214.31628 34.919538,148.16923 54.239878,0.9504518 261.34676,-10.974008 294.55648,133.22027 c 19.8487,86.18161 -50.26597,173.35606 -134.36922,167.06297 z m 21.43125,-9.72719 C 299.72395,272.68069 328.85942,112.54684 224.48101,54.975982 138.11961,7.3425718 31.019338,80.672152 43.736208,178.7286 c 7.96878,61.44525 53.11626,106.94718 111.556252,112.43207 5.44829,0.51136 21.36841,0.14571 26.32605,-0.60462 z"
       id="path1-7-8"
       sodipodi:nodetypes="ssssscsssc" /></g></svg>
