<?xml version="1.0" encoding="UTF-8" standalone="no"?>
<!-- Created with Inkscape (http://www.inkscape.org/) -->

<svg
   width="1023.9999"
   height="1023.9999"
   viewBox="0 0 270.93331 270.93332"
   version="1.1"
   id="svg1"
   xml:space="preserve"
   sodipodi:docname="mlir-net-logo.svg"
   inkscape:version="1.4.2 (ebf0e940, 2025-05-08)"
   xmlns:inkscape="http://www.inkscape.org/namespaces/inkscape"
   xmlns:sodipodi="http://sodipodi.sourceforge.net/DTD/sodipodi-0.dtd"
   xmlns="http://www.w3.org/2000/svg"
   xmlns:svg="http://www.w3.org/2000/svg"><sodipodi:namedview
     id="namedview1"
     pagecolor="#ffffff"
     bordercolor="#000000"
     borderopacity="0.25"
     inkscape:showpageshadow="2"
     inkscape:pageopacity="0.0"
     inkscape:pagecheckerboard="0"
     inkscape:deskcolor="#d1d1d1"
     inkscape:document-units="mm"
     inkscape:zoom="0.89887065"
     inkscape:cx="511.75328"
     inkscape:cy="512.30953"
     inkscape:window-width="2560"
     inkscape:window-height="1292"
     inkscape:window-x="0"
     inkscape:window-y="30"
     inkscape:window-maximized="1"
     inkscape:current-layer="layer1" /><defs
     id="defs1" /><g
     inkscape:label="Layer 1"
     inkscape:groupmode="layer"
     id="layer1"
     transform="translate(30.427076,-12.96459)"><path
       style="fill:#c0a1dc;fill-opacity:1;stroke-width:1.15772"
       d="m 117.10687,101.57179 c -3.03588,-0.73671 -3.80351,-2.864444 -3.67911,-10.198008 0.17057,-10.055914 2.30614,-11.281673 12.9651,-7.441576 2.69556,0.97113 8.2092,2.937516 12.25254,4.369765 4.04333,1.432249 7.73057,2.740889 8.19387,2.908087 1.67321,0.603855 1.51258,0.686666 -8.8065,4.540299 -13.50199,5.042283 -18.45663,6.420633 -20.9259,5.821433 z"
       id="path24" /><path
       style="fill:#e6d4f3;fill-opacity:1;stroke-width:1.15772"
       d="m 89.788444,101.5286 c -2.822716,-0.39041 -26.649249,-9.106211 -26.649249,-9.748354 0,-0.132049 1.964232,-0.93744 4.36496,-1.789753 2.400739,-0.852301 8.293438,-2.949081 13.094893,-4.659484 14.773454,-5.262714 16.081434,-4.754811 16.081434,6.244564 v 6.50907 l -0.84177,1.272021 c -1.40299,2.120046 -2.79988,2.621506 -6.050268,2.171936 z"
       id="path23" /><path
       style="fill:#c0a1dc;fill-opacity:1;stroke-width:1.15772"
       d="m 138.49224,113.39454 c -2.04444,-0.61758 -18.94431,-6.87929 -19.27732,-7.14259 -0.37375,-0.29551 1.12836,-0.95924 8.26802,-3.65334 9.96638,-3.760731 13.29834,-5.026003 17.3653,-6.594226 5.86037,-2.259764 6.76592,-2.127796 20.59956,3.002035 15.06916,5.588001 14.75696,4.662171 2.90997,8.629311 -18.14021,6.07454 -24.6592,7.33155 -29.86553,5.75881 z"
       id="path22" /><path
       style="fill:#e6d4f3;fill-opacity:1;stroke-width:1.15772"
       d="m 64.51761,113.78935 c -4.889083,-0.47625 -31.703424,-8.88314 -31.703424,-9.93972 0,-0.87205 23.086705,-8.808874 26.03662,-8.950961 l 2.909985,-0.140153 8.883075,3.369032 c 4.885703,1.852965 11.42163,4.314302 14.524306,5.469612 5.7857,2.15437 6.22969,2.455 4.531232,3.06802 -0.540678,0.19516 -4.498005,1.6578 -8.794047,3.25031 -10.287528,3.81354 -12.248438,4.27707 -16.387747,3.87386 z"
       id="path21" /><path
       style="fill:#c0a1dc;fill-opacity:1;stroke-width:1.15772"
       d="m 113.46301,125.68468 c -0.17765,-0.23226 -0.22254,-2.74153 -0.11403,-6.37839 0.34883,-11.69811 1.70506,-11.90304 23.58659,-3.56395 3.76661,1.43546 3.75844,1.44053 -10.54266,6.55299 -3.53791,1.26477 -7.32854,2.62801 -8.42362,3.02944 -2.1915,0.80337 -4.0533,0.95206 -4.50623,0.35991 z"
       id="path20" /><path
       style="fill:#e6d4f3;fill-opacity:1;stroke-width:1.15772"
       d="m 91.320012,125.11874 c -1.26354,-0.50215 -4.778484,-1.81384 -7.810991,-2.91486 -8.052087,-2.9235 -13.382238,-5.08919 -13.106609,-5.32534 0.132802,-0.11381 1.895546,-0.79199 3.917213,-1.50713 2.021667,-0.71515 5.605538,-1.99662 7.964147,-2.84769 9.81054,-3.54001 12.03793,-3.54688 13.81164,-0.0426 0.78592,1.55273 1.33766,12.90411 0.64851,13.34211 -0.77815,0.49456 -3.19758,0.18032 -5.42391,-0.70445 z"
       id="path19" /><path
       style="fill:#d3bae7;fill-opacity:1;stroke-width:1.15772"
       d="m 93.311052,144.38787 c -0.94158,-0.32424 -17.459255,-6.52078 -20.216676,-7.58421 -0.842368,-0.32487 -3.599187,-1.37324 -6.126268,-2.32971 -2.527081,-0.95647 -9.556973,-3.66495 -15.621974,-6.01883 -6.065002,-2.35388 -12.681367,-4.90594 -14.703035,-5.67124 -5.447775,-2.06227 -5.054162,-1.32229 -5.054162,-9.50184 0,-8.3457 -0.01829,-8.28996 2.375351,-7.22809 3.471305,1.53994 12.924025,5.31702 20.444986,8.16931 4.211805,1.59732 11.103847,4.23862 15.315653,5.86955 8.791164,3.4042 23.042135,8.7774 24.730525,9.32443 1.55709,0.50449 1.61831,0.72444 0.59487,2.13727 -1.97208,2.72237 -2.15105,7.21329 -0.43275,10.85863 0.54495,1.15611 0.99082,2.15545 0.99082,2.22077 0,0.21985 -1.37074,0.073 -2.29734,-0.24604 z"
       id="path18" /><path
       style="fill:#9269be;fill-opacity:1;stroke-width:1.15772"
       d="m 114.59981,144.86684 c 0,-0.1057 0.42376,-1.05293 0.9417,-2.10501 1.91604,-3.89202 1.89161,-7.95947 -0.0663,-11.04682 -0.92918,-1.46517 -0.78162,-2.278 0.41356,-2.278 0.13909,0 2.14591,-0.74903 4.45957,-1.66451 2.31367,-0.91549 5.92969,-2.30067 8.03559,-3.07821 2.10591,-0.77754 5.34516,-2.02274 7.19835,-2.76712 1.8532,-0.74438 5.36815,-2.10563 7.811,-3.025 15.7582,-5.9306 26.0677,-9.96443 32.11345,-12.56514 3.83009,-1.6476 3.72519,-1.84516 3.72519,7.01587 0,8.16756 0.51738,7.38934 -6.73889,10.13652 -2.94826,1.11619 -8.80651,3.33687 -13.01831,4.93484 -4.21181,1.59797 -8.5538,3.22664 -9.64887,3.61925 -1.09507,0.39263 -3.64512,1.35456 -5.66679,2.13763 -2.02166,0.78308 -5.74337,2.18387 -8.27045,3.11289 -2.5271,0.92901 -6.73124,2.52072 -9.34256,3.53715 -6.83768,2.66148 -11.94621,4.38725 -11.94621,4.03566 z"
       id="path17" /><path
       style="fill:#764ba3;fill-opacity:1;stroke-width:1.15772"
       d="m 129.76231,149.9831 c -10.11069,-3.45044 -10.05911,-3.43199 -10.36622,-3.70755 -0.28868,-0.25902 1.26711,-0.88404 13.12304,-5.27202 22.19394,-8.21416 21.36375,-8.04758 28.18082,-5.65425 9.41244,3.30452 16.10615,5.70675 16.38942,5.88182 0.98228,0.60709 -0.50666,1.27659 -8.79475,3.95453 -27.78254,8.97674 -26.68598,8.84022 -38.53231,4.79747 z"
       id="path16" /><path
       style="fill:#9e74c8;fill-opacity:1;stroke-width:1.15772"
       d="m 62.832885,151.64763 c -9.172876,-2.4054 -30.018699,-9.51547 -30.018699,-10.23876 0,-0.2997 3.883546,-1.72055 14.079718,-5.15129 10.050346,-3.38167 7.138625,-3.81434 29.468632,4.37895 14.109066,5.1769 14.828786,5.47885 13.885376,5.82571 -0.33695,0.12387 -1.301824,0.49309 -2.144192,0.82048 -13.996606,5.43989 -18.322227,6.18704 -25.270835,4.36491 z"
       id="path15" /><path
       style="fill:#764ba3;fill-opacity:1;stroke-width:1.15772"
       d="m 113.12915,163.48154 c -0.31727,-0.20094 -0.33386,-0.76841 -0.0814,-2.78219 0.17446,-1.39136 0.23109,-3.93718 0.12584,-5.65735 -0.48486,-7.92439 0.5876,-8.12587 15.66973,-2.94369 9.49117,3.26115 9.46762,3.24756 7.12178,4.1091 -0.716,0.26296 -3.36943,1.25474 -5.89653,2.20397 -9.71258,3.64823 -16.14481,5.57347 -16.93947,5.07016 z"
       id="path14" /><path
       style="fill:#9e74c8;fill-opacity:1;stroke-width:1.15772"
       d="m 94.383142,163.52079 c -0.42118,-0.0799 -4.48749,-1.52352 -9.036241,-3.20801 -4.548749,-1.68448 -9.2698,-3.40593 -10.491229,-3.82544 -3.376048,-1.15954 -3.523241,-1.07166 8.653349,-5.16643 9.297091,-3.12645 11.114791,-3.39866 12.626941,-1.89102 l 0.85084,0.8483 0.17136,6.35006 c 0.0942,3.49254 0.0942,6.43892 0,6.54753 -0.2622,0.30214 -1.9168,0.50784 -2.77502,0.34501 z"
       id="path13" /><path
       style="fill:#956bc1;fill-opacity:1;stroke-width:1.15772"
       d="m 53.184013,167.55893 c -3.032495,-1.09508 -7.443405,-2.73732 -9.802015,-3.64944 -2.35861,-0.91211 -5.722826,-2.18164 -7.476018,-2.82116 -4.11105,-1.49962 -6.728734,-13.3688 -3.853677,-17.47352 l 0.463354,-0.66154 3.135821,1.39327 c 3.509869,1.55945 16.968784,6.97711 21.208294,8.53704 7.062319,2.5986 10.26149,4.10155 10.26149,4.8208 0,0.20831 -1.421169,2.92749 -3.158153,6.04263 -3.854511,6.91272 -3.01469,6.61573 -10.779096,3.81192 z"
       id="path12" /><path
       style="fill:#593685;fill-opacity:1;stroke-width:1.15772"
       d="m 149.03612,168.72725 c -0.70828,-1.03248 -6.2555,-11.23721 -6.2555,-11.50767 0,-0.16814 2.59314,-1.28814 5.81995,-2.51371 5.36286,-2.03686 20.01591,-7.89036 24.65073,-9.84731 6.01231,-2.53855 5.54903,-3.0869 5.42217,6.41774 -0.0927,6.94758 -0.13795,7.4554 -0.71945,8.0782 -0.68339,0.7319 -0.62532,0.70646 -6.07364,2.66208 -2.1059,0.75588 -7.55062,2.74245 -12.09937,4.41459 -10.59338,3.89414 -9.7694,3.71807 -10.74489,2.29608 z"
       id="path11" /><path
       style="fill:#593685;fill-opacity:1;stroke-width:1.15772"
       d="m 113.68087,182.78124 c 0,-0.13488 0.33069,-0.55593 0.73489,-0.93564 3.06625,-2.8806 3.47474,-10.70923 0.71625,-13.72717 l -0.62139,-0.67984 0.88695,-0.35013 c 1.09986,-0.43416 13.43157,-5.14231 19.41891,-7.41397 2.44285,-0.92685 4.73219,-1.77186 5.08744,-1.87781 0.57734,-0.1722 0.87287,0.27138 2.78435,4.17921 1.17615,2.40453 2.70493,5.37128 3.39728,6.59276 l 1.25883,2.22091 -0.82689,0.41721 c -0.4548,0.22946 -3.99723,1.60121 -7.87209,3.04832 -3.87487,1.44711 -9.11283,3.40651 -11.63991,4.35422 -9.28225,3.48103 -13.32462,4.74671 -13.32462,4.17193 z"
       id="path10" /><path
       style="fill:#956bc1;fill-opacity:1;stroke-width:1.15772"
       d="m 91.932632,181.84087 c -1.93743,-0.65055 -6.41726,-2.28691 -9.955169,-3.63635 -3.53792,-1.34942 -9.176928,-3.49998 -12.53113,-4.77901 -7.125183,-2.717 -6.537131,-2.34493 -5.74128,-3.63265 0.349666,-0.56575 1.890521,-3.54792 3.424128,-6.62704 2.284192,-4.58608 2.881749,-5.56174 3.304698,-5.39572 0.283966,0.11148 4.306924,1.64505 8.93992,3.40795 4.632984,1.76292 9.802015,3.74116 11.486743,4.3961 1.68472,0.65494 3.4422,1.28417 3.90549,1.3983 1.0296,0.25362 1.02932,0.24317 0.0406,1.53931 -2.3508,3.08206 -2.19835,8.17106 0.37225,12.42594 1.55862,2.57984 1.66157,2.5512 -3.24635,0.90317 z"
       id="path9" /><path
       style="fill:#583485;fill-opacity:1;stroke-width:1.15772"
       d="m 136.5012,190.18321 c -2.32644,-0.52806 -17.30233,-5.77609 -17.21661,-6.03324 0.0587,-0.1761 2.30236,-1.13635 4.98592,-2.13389 2.68354,-0.99752 7.42923,-2.76935 10.54597,-3.93739 21.24884,-7.96325 18.5749,-7.67633 31.09078,-3.33628 14.41131,4.9973 14.0762,4.11361 2.95685,7.79732 -22.03834,7.30105 -27.83748,8.67069 -32.36291,7.64348 z"
       id="path8" /><path
       style="fill:#6d459b;fill-opacity:1;stroke-width:1.15772"
       d="m 62.904548,189.34617 c -7.776979,-2.01284 -30.090362,-9.64041 -30.090362,-10.28603 0,-0.77348 21.293988,-7.72389 23.126646,-7.54859 1.548924,0.14814 8.211425,2.44029 21.901397,7.53486 4.12757,1.53602 8.737643,3.24733 10.2446,3.8029 3.817603,1.40743 3.916823,1.32714 -5.560179,4.4999 l -8.513334,2.85013 -3.522604,0.0993 c -3.201719,0.0902 -3.892762,0.003 -7.586164,-0.95245 z"
       id="path7" /><path
       style="fill:#583485;fill-opacity:1;stroke-width:1.15772"
       d="m 113.28635,201.19088 c -0.0684,-0.12636 -0.0421,-3.17113 0.0585,-6.76618 l 0.1829,-6.53643 0.90231,-0.77537 c 1.49176,-1.2819 3.59331,-0.93276 12.42232,2.06378 12.52435,4.25073 12.22606,3.84716 4.74785,6.42327 -1.8532,0.63839 -5.29922,1.91843 -7.65783,2.84455 -6.7528,2.65149 -10.22311,3.5459 -10.65605,2.74638 z"
       id="path6" /><path
       style="fill:#6d459b;fill-opacity:1;stroke-width:1.15772"
       d="m 91.932682,200.51314 c -1.43201,-0.49218 -4.05099,-1.46584 -5.81995,-2.16366 -1.76896,-0.69784 -5.411133,-2.0524 -8.093708,-3.01013 -5.659777,-2.02065 -5.800266,-2.16993 -3.024865,-3.21417 16.452143,-6.19004 20.624663,-6.94963 21.779393,-3.96481 0.53184,1.37472 0.63872,12.90146 0.12147,13.09994 -0.90097,0.34574 -2.46972,0.10952 -4.96234,-0.74717 z"
       id="path5" /><path
       style="fill:#472973;fill-opacity:1;stroke-width:1.15772"
       d="m 102.65364,192.45591 c 0,-10.75005 -0.0383,-11.591 -0.53605,-11.76634 -5.281828,-1.86071 -5.494908,-10.16672 -0.32933,-12.83795 l 0.86538,-0.4475 -0.008,-11.4023 -0.008,-11.4023 -1.26152,-0.76578 c -4.524548,-2.74654 -4.572878,-9.17471 -0.0894,-11.89429 l 1.34807,-0.81771 0.009,-9.07566 0.009,-9.07565 -0.92514,-0.38321 c -4.492668,-1.86093 -4.856038,-9.10541 -0.60147,-11.99106 l 1.51081,-1.024693 0.008,-8.492324 0.008,-8.492322 -0.84237,-0.441207 c -6.586458,-3.449772 -3.799448,-13.698215 3.71427,-13.658204 6.84119,0.03647 9.47516,10.894311 3.26666,13.465953 l -0.93125,0.385729 v 8.684897 8.684911 l 0.84237,0.43998 c 4.49738,2.34913 4.83385,9.19157 0.58915,11.98144 l -1.39813,0.91893 0.002,9.03625 0.002,9.03624 1.2716,0.92328 c 4.3792,3.17963 3.93886,10.77701 -0.71016,12.25255 -0.58018,0.18414 -0.59888,0.54649 -0.59888,11.60726 v 11.41718 l 1.05422,0.75009 c 4.7016,3.34523 4.67294,9.33081 -0.0587,12.25934 l -0.99553,0.61616 -1.8e-4,11.53834 -1.9e-4,11.53834 -2.60346,0.005 -2.60348,0.005 z"
       id="path4" /><path
       style="fill:#472973;fill-opacity:1;stroke-width:1.15772"
       d="m 102.55674,218.74299 c -5.666378,-2.02088 -6.117398,-9.84783 -0.72837,-12.64018 3.90747,-2.02466 8.72505,-0.19453 10.15474,3.85765 1.99345,5.65003 -3.59926,10.86074 -9.42637,8.78253 z"
       id="path3" /><path
       style="fill:#40226a;fill-opacity:1;stroke-width:1.15772"
       d="m 106.63566,228.10264 c 0,-0.15045 0.17878,-0.34214 0.39727,-0.42599 8.02001,-3.07757 13.6257,-16.50102 8.87487,-21.25186 -1.32957,-1.32957 -1.48481,-1.20537 4.05248,-3.24224 5.04179,-1.8546 11.28421,-4.2451 20.21667,-7.74188 3.20098,-1.25308 9.61058,-3.73877 14.24357,-5.52377 4.63299,-1.78499 11.75982,-4.61347 15.8374,-6.28551 4.07758,-1.67203 7.61349,-3.04007 7.8576,-3.04007 0.89559,0 1.11638,1.85462 1.11638,9.3776 v 7.4483 l -0.90424,1.02987 c -0.53325,0.60733 -1.44438,1.19107 -2.22077,1.42277 -0.7241,0.21609 -3.31524,1.26711 -5.75808,2.33558 -5.67445,2.48195 -17.97661,7.65189 -20.36983,8.56034 -1.01084,0.38372 -4.5947,1.8719 -7.96415,3.30707 -3.36943,1.43517 -8.19387,3.44083 -10.72095,4.45702 -2.52709,1.01617 -7.9718,3.24692 -12.09937,4.95722 -10.64719,4.41175 -12.55885,5.11431 -12.55885,4.61555 z"
       id="path2" /><path
       style="fill:#5c3689;fill-opacity:1;stroke-width:1.15772"
       d="m 97.139962,225.86952 c -3.28521,-1.34775 -9.832661,-4.04066 -14.54988,-5.98428 -4.71722,-1.9436 -11.953868,-4.90522 -16.081438,-6.58137 -4.12757,-1.67613 -9.572289,-3.92 -12.09937,-4.98635 -9.721485,-4.10218 -17.849461,-7.49756 -19.834058,-8.28548 -1.237127,-0.49116 -2.381336,-1.1935 -2.848117,-1.74824 l -0.780233,-0.92725 0.09134,-7.55464 c 0.07907,-6.5448 0.162104,-7.66259 0.621012,-8.36219 l 0.529726,-0.80753 4.524448,1.83753 c 4.801826,1.95018 14.417981,5.68608 23.515871,9.13598 3.032495,1.14991 7.305568,2.81096 9.495706,3.69122 2.190139,0.88025 5.911847,2.32933 8.270457,3.22018 2.35861,0.89086 7.045208,2.66652 10.414645,3.94591 3.369451,1.27941 6.290441,2.32638 6.491081,2.32663 0.86034,0.001 0.67267,0.71833 -0.48077,1.8377 -4.608776,4.47268 -0.31693,15.61513 7.850368,20.38106 0.73262,0.42751 1.5062,1.55528 0.91894,1.33967 -0.0421,-0.0155 -2.76448,-1.13082 -6.049678,-2.47855 z"
       id="path1" /></g></svg>
