<?xml version="1.0" encoding="UTF-8" standalone="no"?>
<!-- Created with Inkscape (http://www.inkscape.org/) -->

<svg
   width="198.4375mm"
   height="44.714584mm"
   viewBox="0 0 198.4375 44.714584"
   version="1.1"
   id="svg1"
   xml:space="preserve"
   inkscape:version="1.4.2 (ebf0e940, 2025-05-08)"
   sodipodi:docname="nokia-logo.svg"
   xmlns:inkscape="http://www.inkscape.org/namespaces/inkscape"
   xmlns:sodipodi="http://sodipodi.sourceforge.net/DTD/sodipodi-0.dtd"
   xmlns="http://www.w3.org/2000/svg"
   xmlns:svg="http://www.w3.org/2000/svg"><sodipodi:namedview
     id="namedview1"
     pagecolor="#ffffff"
     bordercolor="#000000"
     borderopacity="0.25"
     inkscape:showpageshadow="2"
     inkscape:pageopacity="0.0"
     inkscape:pagecheckerboard="0"
     inkscape:deskcolor="#d1d1d1"
     inkscape:document-units="mm"
     inkscape:zoom="0.89887065"
     inkscape:cx="380.47744"
     inkscape:cy="190.79497"
     inkscape:window-width="2560"
     inkscape:window-height="1292"
     inkscape:window-x="0"
     inkscape:window-y="30"
     inkscape:window-maximized="1"
     inkscape:current-layer="layer1" /><defs
     id="defs1" /><g
     inkscape:label="Layer 1"
     inkscape:groupmode="layer"
     id="layer1"
     transform="translate(-4.3236961,-98.075119)"><path
       style="fill:#005aff;fill-opacity:1"
       d="m 28.375637,127.69174 -17.197917,-14.8255 -0.06842,14.3103 -0.06843,14.3103 H 7.7358586 4.4308456 v -21.43125 c 0,-11.78719 0.06335,-21.43126 0.140785,-21.43126 0.07743,0 9.3643074,7.92286 20.6375004,17.60635 l 20.496716,17.60634 v 4.35408 c 0,2.39474 -0.0298,4.34778 -0.0661,4.3401 -0.0364,-0.008 -7.805211,-6.68544 -17.264065,-14.83946 z m 37.46622,13.91512 c -12.37768,-2.68509 -19.62591,-13.99296 -16.73275,-26.10456 5.78689,-24.22559 43.27546,-20.91093 44.67398,3.94998 0.83329,14.8131 -12.61803,25.47865 -27.94123,22.15458 z m 9.64017,-5.81692 c 16.21072,-4.16574 15.80443,-27.26376 -0.53972,-30.68348 -12.0302,-2.51711 -22.19932,7.31137 -19.6094,18.95255 1.95329,8.77966 11.04208,14.0712 20.14912,11.73093 z m 36.369653,-4.24833 c -6.33015,-5.45702 -11.78112,-10.19106 -12.113253,-10.52008 l -0.60388,-0.59823 12.056643,-10.37638 12.05664,-10.37639 4.66814,0.0722 4.66813,0.0722 -11.96568,10.28283 c -6.58112,5.65556 -11.93053,10.37133 -11.88756,10.4795 0.043,0.10816 5.25733,4.63259 11.58749,10.0543 6.33016,5.4217 11.74419,10.0821 12.03119,10.35644 0.51211,0.48952 0.4333,0.49859 -4.23333,0.48712 l -4.75515,-0.0117 z m 29.63334,-10.95686 V 99.68267 h 3.30729 3.30729 v 20.90208 20.90209 h -3.30729 -3.30729 z m 12.47689,20.69411 c 0.0499,-0.12303 1.98889,-3.57938 4.30877,-7.68077 l 4.21795,-7.45709 h 12.14838 c 11.32972,0 12.13673,-0.0303 11.9756,-0.45023 -0.095,-0.24763 -2.79768,-5.12655 -6.00591,-10.84205 l -5.83315,-10.39183 1.71147,-3.06164 1.71148,-3.06165 0.6628,1.13756 c 0.36454,0.62565 5.57268,9.82911 11.57363,20.45213 6.00096,10.62303 11.20565,19.8206 11.56597,20.43907 l 0.65515,1.12448 -3.53087,-0.002 -3.53087,-0.002 -2.63338,-4.62799 -2.63338,-4.62799 h -12.09714 -12.09715 l -2.60977,4.56406 -2.60977,4.56407 -3.52031,0.074 c -1.93617,0.0407 -3.47944,-0.0267 -3.4295,-0.14968 z"
       id="path1" /></g></svg>
